<svg width="16" height="20" viewBox="0 0 16 20" fill="none" xmlns="http://www.w3.org/2000/svg">
<path d="M5.69727 5.92773C5.52734 5.92773 5.38086 5.86621 5.25781 5.74316C5.14062 5.61426 5.08203 5.46484 5.08203 5.29492C5.08203 5.125 5.14062 4.98145 5.25781 4.86426C5.38086 4.74121 5.52734 4.67969 5.69727 4.67969H11.8848C12.0547 4.67969 12.1982 4.74121 12.3154 4.86426C12.4385 4.98145 12.5 5.125 12.5 5.29492C12.5 5.46484 12.4385 5.61426 12.3154 5.74316C12.1982 5.86621 12.0547 5.92773 11.8848 5.92773H5.69727ZM5.69727 8.37109C5.52734 8.37109 5.38086 8.30957 5.25781 8.18652C5.14062 8.06348 5.08203 7.91406 5.08203 7.73828C5.08203 7.56836 5.14062 7.4248 5.25781 7.30762C5.38086 7.18457 5.52734 7.12305 5.69727 7.12305H10.3906C10.5605 7.12305 10.7041 7.18457 10.8213 7.30762C10.9443 7.4248 11.0059 7.56836 11.0059 7.73828C11.0059 7.91406 10.9443 8.06348 10.8213 8.18652C10.7041 8.30957 10.5605 8.37109 10.3906 8.37109H5.69727ZM2.96387 19.1729C2.03223 19.1729 1.32617 18.9297 0.845703 18.4434C0.365234 17.9629 0.125 17.2539 0.125 16.3164V3.03613C0.125 2.08691 0.365234 1.36914 0.845703 0.882812C1.32617 0.396484 2.03809 0.15332 2.98145 0.15332H12.3418C13.2852 0.15332 13.9971 0.399414 14.4775 0.891602C14.958 1.37793 15.1982 2.09277 15.1982 3.03613V12.792C15.1982 13.2373 15.1221 13.5859 14.9697 13.8379C14.8174 14.0898 14.6328 14.3125 14.416 14.5059C14.0469 14.8574 13.8184 15.2383 13.7305 15.6484C13.6484 16.0527 13.6836 16.4277 13.8359 16.7734C13.9883 17.1191 14.2461 17.3711 14.6094 17.5293C14.7734 17.5996 14.9141 17.7051 15.0312 17.8457C15.1484 17.9922 15.207 18.1621 15.207 18.3555C15.207 18.584 15.1279 18.7773 14.9697 18.9355C14.8174 19.0938 14.624 19.1729 14.3896 19.1729H2.96387ZM1.85645 13.5127C2.03809 13.4072 2.24023 13.3281 2.46289 13.2754C2.68555 13.2227 2.92578 13.1963 3.18359 13.1963H12.79C13.2471 13.1963 13.4756 12.9736 13.4756 12.5283V3.1416C13.4756 2.7373 13.3701 2.42676 13.1592 2.20996C12.9482 1.9873 12.6289 1.87598 12.2012 1.87598H3.12207C2.7002 1.87598 2.38379 1.9873 2.17285 2.20996C1.96191 2.42676 1.85645 2.7373 1.85645 3.1416V13.5127ZM3.18359 17.5381H12.4033C12.1689 17.1396 12.043 16.7002 12.0254 16.2197C12.0078 15.7451 12.1045 15.2764 12.3154 14.8135C12.2334 14.8252 12.1396 14.8311 12.0342 14.8311H3.25391C2.79102 14.8311 2.4248 14.957 2.15527 15.209C1.8916 15.4609 1.75977 15.7832 1.75977 16.1758C1.75977 16.5918 1.87988 16.9229 2.12012 17.1689C2.36035 17.415 2.71484 17.5381 3.18359 17.5381ZM2.88477 14.0137V1.44531H4.12402V14.0137H2.88477Z" fill="#70CA2C"/>
</svg>
