<svg width="48" height="60" viewBox="0 0 48 60" fill="none" xmlns="http://www.w3.org/2000/svg">
<path d="M19.3003 18.4653C18.7095 18.4653 18.1992 18.2505 17.7695 17.8208C17.3577 17.3911 17.1519 16.8898 17.1519 16.3169C17.1519 15.7261 17.3577 15.2248 17.7695 14.813C18.1992 14.3833 18.7095 14.1685 19.3003 14.1685H36.0044C36.5952 14.1685 37.0965 14.3833 37.5083 14.813C37.938 15.2248 38.1528 15.7261 38.1528 16.3169C38.1528 16.8898 37.938 17.3911 37.5083 17.8208C37.0965 18.2505 36.5952 18.4653 36.0044 18.4653H19.3003ZM19.3003 26.0654C18.7095 26.0654 18.1992 25.8595 17.7695 25.4478C17.3577 25.0181 17.1519 24.5078 17.1519 23.917C17.1519 23.3441 17.3577 22.8517 17.7695 22.4399C18.1992 22.0103 18.7095 21.7954 19.3003 21.7954H32.0029C32.5938 21.7954 33.0951 22.0103 33.5068 22.4399C33.9186 22.8517 34.1245 23.3441 34.1245 23.917C34.1245 24.5078 33.9186 25.0181 33.5068 25.4478C33.0951 25.8595 32.5938 26.0654 32.0029 26.0654H19.3003ZM9.55176 59.1782C6.50814 59.1782 4.18066 58.3636 2.56934 56.7344C0.958008 55.123 0.152344 52.7956 0.152344 49.752V9.57617C0.152344 6.49674 0.958008 4.14242 2.56934 2.51318C4.19857 0.883952 6.53499 0.0693359 9.57861 0.0693359H38.3408C41.4023 0.0693359 43.7388 0.892904 45.3501 2.54004C46.9614 4.16927 47.7671 6.51465 47.7671 9.57617V37.667C47.7671 39.0635 47.5522 40.1646 47.1226 40.9702C46.7108 41.758 46.0394 42.5278 45.1084 43.2798C43.9805 44.2824 43.2643 45.4193 42.96 46.6904C42.6735 47.9437 42.7451 49.1253 43.1748 50.2354C43.6224 51.3633 44.3743 52.2048 45.4307 52.7598C46.0752 53.1357 46.6302 53.5833 47.0957 54.1025C47.5791 54.6217 47.8208 55.2842 47.8208 56.0898C47.8208 56.985 47.5343 57.7191 46.9614 58.292C46.3885 58.8828 45.6545 59.1782 44.7593 59.1782H9.55176ZM7.08105 38.8218C7.60026 38.589 8.15527 38.4189 8.74609 38.3115C9.33691 38.1862 9.97249 38.1235 10.6528 38.1235H39.2002C40.2923 38.1235 40.8384 37.5864 40.8384 36.5122V10.3281C40.8384 9.25391 40.5698 8.43929 40.0327 7.88428C39.4956 7.31136 38.6541 7.0249 37.5083 7.0249H10.4111C9.2832 7.0249 8.44173 7.31136 7.88672 7.88428C7.34961 8.43929 7.08105 9.25391 7.08105 10.3281V38.8218ZM11.002 53.0283H37.5352C36.8369 51.7035 36.4699 50.2712 36.4341 48.7314C36.4162 47.1738 36.7563 45.6699 37.4546 44.2197C37.2576 44.2555 37.0249 44.2734 36.7563 44.2734H11.1362C9.59652 44.2734 8.41488 44.6942 7.59131 45.5356C6.76774 46.3771 6.35596 47.4066 6.35596 48.624C6.35596 49.8952 6.74089 50.9425 7.51074 51.7661C8.2806 52.6076 9.44434 53.0283 11.002 53.0283ZM10.2231 40.8896V5.19873H14.4932V40.8896H10.2231Z" fill="#427D16"/>
</svg>
