<svg width="16" height="17" viewBox="0 0 16 17" fill="none" xmlns="http://www.w3.org/2000/svg">
<path d="M2.51562 16.8633C1.02148 16.8633 0.274414 16.3594 0.274414 15.3516C0.274414 14.7539 0.453125 14.127 0.810547 13.4707C1.17383 12.8145 1.69238 12.2021 2.36621 11.6338C3.0459 11.0654 3.86035 10.6055 4.80957 10.2539C5.75879 9.89648 6.8252 9.71777 8.00879 9.71777C9.18066 9.71777 10.2412 9.89648 11.1904 10.2539C12.1455 10.6055 12.96 11.0654 13.6338 11.6338C14.3076 12.2021 14.8232 12.8145 15.1807 13.4707C15.5439 14.127 15.7256 14.7539 15.7256 15.3516C15.7256 16.3594 14.9785 16.8633 13.4844 16.8633H2.51562ZM2.23438 15.3428H13.7744C13.874 15.3428 13.9443 15.3252 13.9854 15.29C14.0322 15.2549 14.0557 15.1963 14.0557 15.1143C14.0557 14.7744 13.9238 14.3877 13.6602 13.9541C13.3965 13.5146 13.0039 13.0898 12.4824 12.6797C11.9668 12.2637 11.334 11.9209 10.584 11.6514C9.83398 11.376 8.97559 11.2383 8.00879 11.2383C7.03613 11.2383 6.17188 11.376 5.41602 11.6514C4.66602 11.9209 4.0332 12.2637 3.51758 12.6797C3.00195 13.0898 2.60938 13.5146 2.33984 13.9541C2.07617 14.3877 1.94434 14.7744 1.94434 15.1143C1.94434 15.1963 1.96484 15.2549 2.00586 15.29C2.05273 15.3252 2.12891 15.3428 2.23438 15.3428ZM8.00879 8.68945C7.2998 8.68945 6.65234 8.50195 6.06641 8.12695C5.48633 7.75195 5.02344 7.25098 4.67773 6.62402C4.33203 5.99121 4.15918 5.29395 4.15918 4.53223C4.15918 3.78223 4.33203 3.09961 4.67773 2.48438C5.02344 1.86328 5.48633 1.36816 6.06641 0.999023C6.65234 0.629883 7.2998 0.445312 8.00879 0.445312C8.71777 0.445312 9.3623 0.626953 9.94238 0.990234C10.5283 1.35352 10.9912 1.84277 11.3311 2.45801C11.6768 3.07324 11.8496 3.75879 11.8496 4.51465C11.8496 5.28223 11.6768 5.98242 11.3311 6.61523C10.9854 7.24805 10.5225 7.75195 9.94238 8.12695C9.3623 8.50195 8.71777 8.68945 8.00879 8.68945ZM8.00879 7.16016C8.41895 7.16016 8.79395 7.0459 9.13379 6.81738C9.47363 6.58301 9.74609 6.2666 9.95117 5.86816C10.1562 5.46387 10.2588 5.0127 10.2588 4.51465C10.2588 4.02832 10.1562 3.59473 9.95117 3.21387C9.74609 2.82715 9.47363 2.52246 9.13379 2.2998C8.79395 2.07715 8.41895 1.96582 8.00879 1.96582C7.59863 1.96582 7.22363 2.08008 6.88379 2.30859C6.54395 2.53125 6.27148 2.83594 6.06641 3.22266C5.86133 3.60938 5.75879 4.0459 5.75879 4.53223C5.75879 5.02441 5.86133 5.47266 6.06641 5.87695C6.27148 6.27539 6.54395 6.58887 6.88379 6.81738C7.22949 7.0459 7.60449 7.16016 8.00879 7.16016Z" fill="#70CA2C"/>
</svg>
