<svg width="18" height="21" viewBox="0 0 18 21" fill="none" xmlns="http://www.w3.org/2000/svg">
<path d="M0.642578 17.6943V4.58105C0.642578 3.77246 0.859375 3.16016 1.29297 2.74414C1.72656 2.32227 2.31836 2.08789 3.06836 2.04102C4.09375 1.97656 5.07812 1.88574 6.02148 1.76855C6.9707 1.65137 7.88184 1.5166 8.75488 1.36426C9.63379 1.20605 10.4775 1.0332 11.2861 0.845703C12.165 0.634766 12.8477 0.734375 13.334 1.14453C13.8203 1.54883 14.0635 2.21094 14.0635 3.13086V15.9717C14.0635 16.751 13.9287 17.3428 13.6592 17.7471C13.3896 18.1572 12.9268 18.459 12.2705 18.6523C11.21 18.9453 10.1846 19.1826 9.19434 19.3643C8.2041 19.5518 7.22559 19.6982 6.25879 19.8037C5.29785 19.9092 4.3252 19.9883 3.34082 20.041C2.48535 20.0938 1.82031 19.9121 1.3457 19.4961C0.876953 19.0859 0.642578 18.4854 0.642578 17.6943ZM2.29492 17.4043C2.29492 17.7383 2.39453 17.9902 2.59375 18.1602C2.79297 18.3301 3.06543 18.4062 3.41113 18.3887C4.37207 18.3418 5.30957 18.2686 6.22363 18.1689C7.14355 18.0693 8.04297 17.9375 8.92188 17.7734C9.80664 17.6152 10.6855 17.4131 11.5586 17.167C11.875 17.085 12.0947 16.9502 12.2178 16.7627C12.3467 16.5693 12.4111 16.2881 12.4111 15.9189V3.43848C12.4111 3.08105 12.3086 2.81445 12.1035 2.63867C11.8984 2.46289 11.6143 2.41602 11.251 2.49805C10.4482 2.68555 9.61621 2.8584 8.75488 3.0166C7.89941 3.16895 7.01758 3.30371 6.10938 3.4209C5.20117 3.53223 4.2666 3.61426 3.30566 3.66699C3.0127 3.67871 2.76953 3.76074 2.57617 3.91309C2.38867 4.05957 2.29492 4.29688 2.29492 4.625V17.4043ZM4.20215 6.7959C4.0498 6.80762 3.92383 6.76367 3.82422 6.66406C3.72461 6.56445 3.6748 6.44434 3.6748 6.30371C3.6748 6.16309 3.71582 6.04297 3.79785 5.94336C3.88574 5.83789 4.02051 5.7793 4.20215 5.76758C5.40918 5.69141 6.51074 5.57129 7.50684 5.40723C8.50879 5.24316 9.47852 5.05566 10.416 4.84473C10.6152 4.80371 10.7676 4.83594 10.873 4.94141C10.9844 5.04102 11.04 5.16113 11.04 5.30176C11.04 5.4248 11.0049 5.53906 10.9346 5.64453C10.8643 5.74414 10.7266 5.81445 10.5215 5.85547C9.53711 6.07812 8.54102 6.27148 7.5332 6.43555C6.52539 6.59961 5.41504 6.71973 4.20215 6.7959ZM4.20215 9.5293C4.0498 9.53516 3.92383 9.48828 3.82422 9.38867C3.72461 9.28906 3.6748 9.16602 3.6748 9.01953C3.6748 8.88477 3.71582 8.76758 3.79785 8.66797C3.88574 8.5625 4.02051 8.50391 4.20215 8.49219C5.40918 8.41016 6.51074 8.29004 7.50684 8.13184C8.50879 7.96777 9.47852 7.7832 10.416 7.57812C10.6152 7.53125 10.7676 7.56055 10.873 7.66602C10.9844 7.76562 11.04 7.88574 11.04 8.02637C11.04 8.15527 11.0049 8.26953 10.9346 8.36914C10.8643 8.46289 10.7266 8.53613 10.5215 8.58887C9.53711 8.80566 8.54102 8.99609 7.5332 9.16016C6.52539 9.31836 5.41504 9.44141 4.20215 9.5293ZM4.20215 12.2539C4.0498 12.2598 3.92383 12.2129 3.82422 12.1133C3.72461 12.0137 3.6748 11.8906 3.6748 11.7441C3.6748 11.6094 3.71582 11.4922 3.79785 11.3926C3.88574 11.293 4.02051 11.2373 4.20215 11.2256C5.40918 11.1377 6.51074 11.0146 7.50684 10.8564C8.50879 10.6982 9.47852 10.5137 10.416 10.3027C10.6152 10.2559 10.7676 10.2822 10.873 10.3818C10.9844 10.4814 11.04 10.6045 11.04 10.751C11.04 10.8799 11.0049 10.9941 10.9346 11.0938C10.8643 11.1934 10.7266 11.2666 10.5215 11.3135C9.53711 11.5303 8.54102 11.7207 7.5332 11.8848C6.52539 12.0488 5.41504 12.1719 4.20215 12.2539ZM4.20215 14.9697C4.0498 14.9756 3.92383 14.9316 3.82422 14.8379C3.72461 14.7383 3.6748 14.6152 3.6748 14.4688C3.6748 14.334 3.71582 14.2168 3.79785 14.1172C3.88574 14.0117 4.02051 13.9531 4.20215 13.9414C4.8877 13.9004 5.4707 13.8506 5.95117 13.792C6.4375 13.7275 6.88281 13.666 7.28711 13.6074C7.49219 13.5664 7.64746 13.5986 7.75293 13.7041C7.86426 13.8096 7.91992 13.9326 7.91992 14.0732C7.91992 14.1904 7.87891 14.3018 7.79688 14.4072C7.7207 14.5127 7.60645 14.5801 7.4541 14.6094C7.00293 14.6855 6.52246 14.7559 6.0127 14.8203C5.50879 14.8789 4.90527 14.9287 4.20215 14.9697ZM7.90234 20.8496C8.65234 20.7324 9.41992 20.5889 10.2051 20.4189C10.9902 20.2549 11.7959 20.0615 12.6221 19.8389C13.2139 19.6689 13.709 19.4229 14.1074 19.1006C14.5117 18.7842 14.8164 18.3711 15.0215 17.8613C15.2266 17.3516 15.3291 16.7217 15.3291 15.9717V3.1748C15.3291 3.02832 15.3232 2.88477 15.3115 2.74414C15.2998 2.59766 15.2852 2.44238 15.2676 2.27832C15.8477 2.4248 16.2842 2.72363 16.5771 3.1748C16.876 3.62012 17.0254 4.21484 17.0254 4.95898V17.9756C17.0254 18.9307 16.7881 19.6484 16.3135 20.1289C15.8447 20.6094 15.1387 20.8496 14.1953 20.8496H7.90234Z" fill="#70CA2C"/>
</svg>
