<svg width="22" height="22" viewBox="0 0 22 22" fill="none" xmlns="http://www.w3.org/2000/svg">
<g clip-path="url(#clip0_10005_4844)">
<path d="M14.0806 3.71582C15.4862 5.12138 16.8673 6.51471 18.2729 7.92026C18.2362 7.96915 18.1751 8.01804 18.1262 8.07915C15.6573 10.548 13.1884 13.0047 10.7318 15.4858C10.3895 15.828 10.0106 16.0236 9.53398 16.0603C8.69065 16.1336 7.85954 16.2192 7.0162 16.2925C6.23398 16.3536 5.65954 15.7792 5.73287 14.9969C5.8062 14.1414 5.89176 13.2736 5.96509 12.418C6.00176 12.0147 6.16065 11.6603 6.44176 11.3669C8.95954 8.84915 11.4651 6.33138 13.9829 3.80138C14.0073 3.77693 14.044 3.74026 14.0806 3.71582Z" fill="#FA8903"/>
<path d="M1.14844 11.9168C1.14844 10.0957 1.14844 8.28684 1.14844 6.46572C1.14844 4.74239 2.29733 3.3735 3.99622 3.05572C4.20399 3.01906 4.41177 3.00684 4.61955 3.00684C6.34288 3.00684 8.06622 3.00684 9.78955 3.00684C10.2173 3.00684 10.4984 3.21461 10.5595 3.56906C10.6329 3.96017 10.3518 4.33906 9.96066 4.37572C9.81399 4.37572 9.67955 4.37572 9.53288 4.37572C7.90733 4.37572 6.28177 4.37572 4.66844 4.37572C3.58066 4.37572 2.74955 5.06017 2.55399 6.07461C2.52955 6.22128 2.52955 6.36795 2.52955 6.52684C2.52955 10.1324 2.52955 13.7379 2.52955 17.3435C2.52955 18.4068 3.1651 19.2257 4.1551 19.4457C4.32622 19.4824 4.50955 19.4946 4.69288 19.4946C8.28622 19.4946 11.8673 19.4946 15.4607 19.4946C16.5362 19.4946 17.3551 18.8713 17.5751 17.8813C17.624 17.6857 17.624 17.4902 17.624 17.2824C17.624 15.5835 17.624 13.8846 17.624 12.1735C17.624 11.7457 17.8929 11.4524 18.2718 11.4402C18.6629 11.4157 18.9807 11.7091 18.9929 12.1246C18.9929 12.3324 18.9929 12.5402 18.9929 12.7479C18.9929 14.2879 18.9929 15.8402 18.9929 17.3802C18.9929 19.0546 17.8929 20.4235 16.2795 20.7779C16.0229 20.8391 15.754 20.8513 15.4973 20.8513C11.8795 20.8513 8.26177 20.8513 4.64399 20.8513C2.85955 20.8513 1.46622 19.6657 1.1851 17.9057C1.14844 17.6979 1.14844 17.4902 1.14844 17.2824C1.14844 15.4979 1.14844 13.7013 1.14844 11.9168Z" fill="#FA8903"/>
<path d="M15.0825 2.70147C15.5592 2.27369 15.9503 1.72369 16.5614 1.43036C17.5148 0.990361 18.627 1.16147 19.3848 1.89481C19.6536 2.15147 19.9103 2.42036 20.167 2.68925C20.9981 3.59369 21.047 4.98703 20.2403 5.92814C19.947 6.28258 19.5681 6.56369 19.2381 6.86925C17.8814 5.51258 16.4881 4.11925 15.0703 2.71369L15.0825 2.70147Z" fill="#FA8903"/>
</g>
<defs>
<clipPath id="clip0_10005_4844">
<rect width="22" height="22" fill="white"/>
</clipPath>
</defs>
</svg>
